<svg xmlns="http://www.w3.org/2000/svg" xmlns:xlink="http://www.w3.org/1999/xlink" width="500" zoomAndPan="magnify" viewBox="0 0 375 374.999991" height="500" preserveAspectRatio="xMidYMid meet" version="1.0"><defs><clipPath id="72aca0cac9"><path d="M 196 159 L 276 159 L 276 227 L 196 227 Z M 196 159 " clip-rule="nonzero"/></clipPath><clipPath id="3b8f57d880"><path d="M 233.464844 135.90625 L 318.761719 176.585938 L 273.882812 270.679688 L 188.585938 230 Z M 233.464844 135.90625 " clip-rule="nonzero"/></clipPath><clipPath id="2a201b5261"><path d="M 233.464844 135.90625 L 318.761719 176.585938 L 273.882812 270.679688 L 188.585938 230 Z M 233.464844 135.90625 " clip-rule="nonzero"/></clipPath><clipPath id="fca25c7aed"><path d="M 233.464844 135.90625 L 318.761719 176.585938 L 273.882812 270.679688 L 188.585938 230 Z M 233.464844 135.90625 " clip-rule="nonzero"/></clipPath><clipPath id="7e52b4614f"><path d="M 194 172 L 292 172 L 292 233 L 194 233 Z M 194 172 " clip-rule="nonzero"/></clipPath><clipPath id="7fb9002217"><path d="M 233.464844 135.90625 L 318.761719 176.585938 L 273.882812 270.679688 L 188.585938 230 Z M 233.464844 135.90625 " clip-rule="nonzero"/></clipPath><clipPath id="08d711b5ed"><path d="M 233.464844 135.90625 L 318.761719 176.585938 L 273.882812 270.679688 L 188.585938 230 Z M 233.464844 135.90625 " clip-rule="nonzero"/></clipPath><clipPath id="7954d82cb1"><path d="M 233.464844 135.90625 L 318.761719 176.585938 L 273.882812 270.679688 L 188.585938 230 Z M 233.464844 135.90625 " clip-rule="nonzero"/></clipPath><clipPath id="20f4ed3d02"><path d="M 199 146 L 260 146 L 260 219 L 199 219 Z M 199 146 " clip-rule="nonzero"/></clipPath><clipPath id="857a5dcdf3"><path d="M 233.464844 135.90625 L 318.761719 176.585938 L 273.882812 270.679688 L 188.585938 230 Z M 233.464844 135.90625 " clip-rule="nonzero"/></clipPath><clipPath id="37612fb4e2"><path d="M 233.464844 135.90625 L 318.761719 176.585938 L 273.882812 270.679688 L 188.585938 230 Z M 233.464844 135.90625 " clip-rule="nonzero"/></clipPath><clipPath id="85f410d2d6"><path d="M 233.464844 135.90625 L 318.761719 176.585938 L 273.882812 270.679688 L 188.585938 230 Z M 233.464844 135.90625 " clip-rule="nonzero"/></clipPath><clipPath id="f21f5bdde7"><path d="M 98 159 L 179 159 L 179 227 L 98 227 Z M 98 159 " clip-rule="nonzero"/></clipPath><clipPath id="eb033141eb"><path d="M 56.273438 176.28125 L 141.742188 135.972656 L 186.210938 230.261719 L 100.742188 270.574219 Z M 56.273438 176.28125 " clip-rule="nonzero"/></clipPath><clipPath id="d7c38cd186"><path d="M 141.699219 135.992188 L 56.230469 176.304688 L 100.699219 270.59375 L 186.167969 230.28125 Z M 141.699219 135.992188 " clip-rule="nonzero"/></clipPath><clipPath id="7f8d923be6"><path d="M 141.699219 135.992188 L 56.230469 176.304688 L 100.699219 270.59375 L 186.167969 230.28125 Z M 141.699219 135.992188 " clip-rule="nonzero"/></clipPath><clipPath id="f8737f24bd"><path d="M 82 172 L 181 172 L 181 233 L 82 233 Z M 82 172 " clip-rule="nonzero"/></clipPath><clipPath id="2788d36669"><path d="M 56.273438 176.28125 L 141.742188 135.972656 L 186.210938 230.261719 L 100.742188 270.574219 Z M 56.273438 176.28125 " clip-rule="nonzero"/></clipPath><clipPath id="9a139395c4"><path d="M 141.699219 135.992188 L 56.230469 176.304688 L 100.699219 270.59375 L 186.167969 230.28125 Z M 141.699219 135.992188 " clip-rule="nonzero"/></clipPath><clipPath id="6430f4466e"><path d="M 141.699219 135.992188 L 56.230469 176.304688 L 100.699219 270.59375 L 186.167969 230.28125 Z M 141.699219 135.992188 " clip-rule="nonzero"/></clipPath><clipPath id="15ff8fcd33"><path d="M 114 146 L 176 146 L 176 220 L 114 220 Z M 114 146 " clip-rule="nonzero"/></clipPath><clipPath id="01247ba23d"><path d="M 56.273438 176.28125 L 141.742188 135.972656 L 186.210938 230.261719 L 100.742188 270.574219 Z M 56.273438 176.28125 " clip-rule="nonzero"/></clipPath><clipPath id="37081a1eba"><path d="M 141.699219 135.992188 L 56.230469 176.304688 L 100.699219 270.59375 L 186.167969 230.28125 Z M 141.699219 135.992188 " clip-rule="nonzero"/></clipPath><clipPath id="c9e6bc22af"><path d="M 141.699219 135.992188 L 56.230469 176.304688 L 100.699219 270.59375 L 186.167969 230.28125 Z M 141.699219 135.992188 " clip-rule="nonzero"/></clipPath></defs><g clip-path="url(#72aca0cac9)"><g clip-path="url(#3b8f57d880)"><g clip-path="url(#2a201b5261)"><g clip-path="url(#fca25c7aed)"><path fill="#3871c1" d="M 275.824219 219.132812 L 270.738281 159.085938 C 270.738281 159.085938 264.714844 159.816406 257.59375 162.042969 L 258.101562 168.054688 C 260.023438 167.960938 262.050781 168.003906 264.179688 168.230469 L 268.574219 211.738281 C 268.574219 211.738281 219.320312 206.105469 196.546875 226.332031 C 196.546875 226.332031 225 209.214844 275.824219 219.132812 " fill-opacity="1" fill-rule="nonzero"/></g></g></g></g><g clip-path="url(#7e52b4614f)"><g clip-path="url(#7fb9002217)"><g clip-path="url(#08d711b5ed)"><g clip-path="url(#7954d82cb1)"><path fill="#2e3192" d="M 286.765625 172.902344 C 286.765625 172.902344 280.746094 173.632812 273.625 175.859375 L 274.132812 181.871094 C 276.054688 181.773438 278.082031 181.816406 280.210938 182.042969 L 284.601562 225.554688 C 284.601562 225.554688 226.253906 212.460938 194.152344 232.660156 C 194.152344 232.660156 229.535156 220.21875 291.855469 232.949219 L 286.765625 172.902344 " fill-opacity="1" fill-rule="nonzero"/></g></g></g></g><g clip-path="url(#20f4ed3d02)"><g clip-path="url(#857a5dcdf3)"><g clip-path="url(#37612fb4e2)"><g clip-path="url(#85f410d2d6)"><path fill="#00adef" d="M 199.371094 218.878906 C 199.371094 218.878906 223.773438 199.4375 259.875 206.125 L 254.789062 146.078125 C 254.789062 146.078125 227.640625 149.367188 220.429688 163.296875 C 220.429688 163.296875 231.136719 153.402344 248.230469 155.21875 L 252.625 198.730469 C 252.625 198.730469 217.703125 197.527344 199.371094 218.878906 " fill-opacity="1" fill-rule="nonzero"/></g></g></g></g><g clip-path="url(#f21f5bdde7)"><g clip-path="url(#eb033141eb)"><g clip-path="url(#d7c38cd186)"><g clip-path="url(#7f8d923be6)"><path fill="#3871c1" d="M 98.984375 219.035156 L 104.332031 159.011719 C 104.332031 159.011719 110.347656 159.769531 117.460938 162.027344 L 116.925781 168.035156 C 115.003906 167.933594 112.976562 167.964844 110.847656 168.183594 L 106.265625 211.675781 C 106.265625 211.675781 155.539062 206.253906 178.226562 226.582031 C 178.226562 226.582031 149.847656 209.339844 98.984375 219.035156 " fill-opacity="1" fill-rule="nonzero"/></g></g></g></g><g clip-path="url(#f8737f24bd)"><g clip-path="url(#2788d36669)"><g clip-path="url(#9a139395c4)"><g clip-path="url(#6430f4466e)"><path fill="#2e3192" d="M 88.242188 172.757812 C 88.242188 172.757812 94.257812 173.515625 101.371094 175.773438 L 100.835938 181.78125 C 98.914062 181.675781 96.886719 181.710938 94.757812 181.929688 L 90.175781 225.417969 C 90.175781 225.417969 148.578125 212.582031 180.59375 232.917969 C 180.59375 232.917969 145.265625 220.320312 82.890625 232.78125 L 88.242188 172.757812 " fill-opacity="1" fill-rule="nonzero"/></g></g></g></g><g clip-path="url(#15ff8fcd33)"><g clip-path="url(#01247ba23d)"><g clip-path="url(#37081a1eba)"><g clip-path="url(#c9e6bc22af)"><path fill="#00adef" d="M 175.433594 219.113281 C 175.433594 219.113281 151.117188 199.566406 114.988281 206.097656 L 120.335938 146.074219 C 120.335938 146.074219 147.46875 149.480469 154.621094 163.445312 C 154.621094 163.445312 143.953125 153.5 126.851562 155.246094 L 122.269531 198.734375 C 122.269531 198.734375 157.195312 197.6875 175.433594 219.113281 " fill-opacity="1" fill-rule="nonzero"/></g></g></g></g></svg>